<?xml version="1.0" encoding="UTF-8" standalone="no"?>
<svg width="256" height="256" viewBox="0 0 256 256" fill="none" xmlns="http://www.w3.org/2000/svg">
  <path
     fill-rule="evenodd"
     clip-rule="evenodd"
     d="m 98.780322,188.81276 c -11.8952,3.05638 -20.68464,13.83315 -20.68464,26.65925 0,15.20185 12.34785,27.52549 27.579668,27.52549 15.23183,0 27.57936,-12.32364 27.57936,-27.52549 0,-12.8261 -8.78934,-23.60287 -20.68455,-26.65925 -0.005,-38.40678 9.34991,-53.70477 35.79079,-53.68577 3.06811,11.84785 13.88863,20.60198 26.76593,20.60198 15.26266,0 27.63644,-12.2991 27.63644,-27.47001 0,-15.16986 -12.37378,-27.46895 -27.63644,-27.46895 -12.8773,0 -23.69782,8.75413 -26.76593,20.60197 -26.36515,0.0354 -49.388508,10.99359 -49.580628,67.42083 z M 171.32972,46.32916 c 3.06704,11.847738 13.88757,20.601982 26.76487,20.601982 15.26372,0 27.63643,-12.298356 27.63643,-27.469273 0,-15.170703 -12.37271,-27.469158 -27.63643,-27.469158 -12.8773,0 -23.69783,8.754257 -26.76487,20.601867 -58.10431,6.008021 -44.20195,83.117612 -86.919088,83.016062 -3.0681,-11.84784 -13.88777,-20.602608 -26.765285,-20.602608 -15.262768,0 -27.635583,12.298658 -27.635583,27.469578 0,15.17091 12.372815,27.46895 27.635583,27.46895 12.877515,0 23.697185,-8.75307 26.765285,-20.60092 55.138108,-5.97436 44.270918,-82.99389 86.919088,-83.01648 z m 3.79716,96.52571 c 8.32422,0 15.07277,-6.72189 15.07277,-15.0141 0,-8.29114 -6.74855,-15.01303 -15.07277,-15.01303 -8.32421,0 -15.07278,6.72189 -15.07278,15.01303 0,8.29221 6.74857,15.0141 15.07278,15.0141 z m -69.45409,87.63017 c 8.324,0 15.07309,-6.72189 15.07309,-15.01303 0,-8.29221 -6.74909,-15.01409 -15.07309,-15.01409 -8.323998,0 -15.072978,6.72188 -15.072978,15.01409 0,8.29114 6.74898,15.01303 15.072978,15.01303 z M 57.586567,137.49171 c 8.324005,0 15.073095,-6.72189 15.073095,-15.0141 0,-8.29222 -6.74909,-15.01303 -15.073095,-15.01303 -8.324002,0 -15.072985,6.72081 -15.072985,15.01303 0,8.29221 6.748983,15.0141 15.072985,15.0141 z M 198.09779,54.475113 c 8.32421,0 15.07277,-6.721673 15.07277,-15.013244 0,-8.291571 -6.74856,-15.013243 -15.07277,-15.013243 -8.32421,0 -15.07278,6.721672 -15.07278,15.013243 0,8.291571 6.74857,15.013244 15.07278,15.013244 z"
     fill="#fc662d" />
</svg>
